# xmcd
# Track frame offsets:
# 150
# 13037
# 24137
# 37760
# 51837
# 63297
# 72832
# 83617
# 97682
# 110170
# 122982
# 134967
# 148472
# 160075
# 175150
# 186157
# 199295
# 213687
# 224182
# 238045
# 252625
# 264192
# 279937
# 293487
#
# Disc length: 4046 seconds
# Revision: 0
# Processed by: cddbd v1.4PL0 Copyright (c) Steve Scherf et al.
# Submitted via: VisiTrax 2.9.5.180 - For more info visit www.synapsa.com
#
DISCID=6e0fcc18
DTITLE=Vern Gosdin - A. M. I. Sessions
DYEAR=1989
DGENRE=
TTITLE0=Too long gone
TTITLE1=Your bedroom eyes
TTITLE2=Just give me what you think is fair
TTITLE3=Friday night feeling
TTITLE4=Don't ever leave me again
TTITLE5=Ain't it been love
TTITLE6=Weekends were made for cheatin'
TTITLE7=It's beginning to look like the end
TTITLE8=M baby sings the blues
TTITLE9=When love takes over your life
TTITLE10=Tonight I'm feeling you all over again
TTITLE11=She's just a place to fall
TTITLE12=When love was all we hed to share
TTITLE13=Rustin' down
TTITLE14=Too far gone to find
TTITLE15=Loving you is music to m mind
TTITLE16=Singer of sad songs
TTITLE17=Love is like an echo
TTITLE18=Rough around the edges
TTITLE19=Cowboys are common as sin
TTITLE20=Lady
TTITLE21=It might have been
TTITLE22=It's not over (if I'm not over you)
TTITLE23=Damn the fever
EXTD=
EXTT0=
EXTT1=
EXTT2=
EXTT3=
EXTT4=
EXTT5=
EXTT6=
EXTT7=
EXTT8=
EXTT9=
EXTT10=
EXTT11=
EXTT12=
EXTT13=
EXTT14=
EXTT15=
EXTT16=
EXTT17=
EXTT18=
EXTT19=
EXTT20=
EXTT21=
EXTT22=
EXTT23=
PLAYORDER=
